<svg xmlns="http://www.w3.org/2000/svg" viewBox="0 0 994.34 3261.2"><defs><style>.cls-1{fill:none;stroke:#e26a2c;stroke-miterlimit:10;stroke-width:12px;}.cls-2{fill:#009245;}</style></defs><g id="Layer_2" data-name="Layer 2"><g id="Layer_5" data-name="Layer 5"><path class="cls-1" d="M559.27,2.43c46.76,105.72,135.76,183,218,260.86,75.16,71.15,199.32,179.12,195.59,293.55-1.3,39.85-32,81.6-71.81,80-24.31-1-45.84-17.74-58.64-38.43a109.77,109.77,0,0,1-14-79c4.87-23.7,21.36-47.91,45.45-50.16,18.78-1.76,36.08,10.27,49.29,23.75,46.78,47.75,62.37,120.33,51.47,184.86-8.37,49.58-29.73,96-53.51,140.29-39.94,74.41-87.38,145-121.46,222.22-98.71,223.76,41.48,467.31-34.55,692.75-30.57,90.67-100,166.49-185.57,208.56-42.85,21.08-109.18,38.13-156.16,28.88-52.87-10.41-101.72-88.76-39-123.48,34.09-18.87,83.62,7.22,87.32,46,4.31,45.12-43.74,79.15-88.71,84.84s-90.72-6.17-135.76-1C159.31,1987,89.69,2061.56,58.93,2144.48c-31.14,83.94-26,170.42-29.58,258-11.57,286.46,2.54,572.34,17.7,858.36"/><polygon class="cls-2" points="751.53 1315.29 759.24 1290.76 776.63 1309.7 794.02 1328.64 768.92 1334.23 743.82 1339.82 751.53 1315.29"/><polygon class="cls-2" points="7.71 2929.07 15.42 2904.54 32.81 2923.48 50.2 2942.43 25.1 2948.01 0 2953.61 7.71 2929.07"/><polygon class="cls-2" points="14.35 2448.19 4.45 2430.06 25.1 2430.55 45.75 2431.04 35 2448.68 24.25 2466.32 14.35 2448.19"/><polygon class="cls-2" points="720.4 197.29 743.82 186.68 741.3 212.27 738.78 237.87 717.88 222.89 696.97 207.91 720.4 197.29"/><polygon class="cls-2" points="124.16 2043.14 119.57 2012.61 148.48 2023.88 177.39 2035.14 153.07 2054.41 128.75 2073.68 124.16 2043.14"/><polygon class="cls-2" points="674.33 1866.14 696.47 1853.07 696.72 1878.78 696.97 1904.5 674.58 1891.86 652.18 1879.22 674.33 1866.14"/><polygon class="cls-2" points="971.42 695.26 994.34 692 985.39 711.27 976.44 730.53 962.48 714.52 948.51 698.51 971.42 695.26"/></g></g></svg>