<svg xmlns="http://www.w3.org/2000/svg" viewBox="0 0 1334.86 219.21"><defs><style>.cls-1{fill:none;stroke:#e26a2c;stroke-linecap:round;stroke-linejoin:round;stroke-width:11.85px;}.cls-2{fill:#009245;}</style></defs><g id="Layer_2" data-name="Layer 2"><g id="Layer_1-2" data-name="Layer 1"><path class="cls-1" d="M5.92,195.85c111.1,8.34,223-24.75,319.35-82,20.59-12.23,43.9-27.62,51.25-52.28,4.2-14.06,2.45-30.25-6.08-42.07C366.33,13.8,360.62,9.15,354,7.13c-8.55-2.6-17.83-.68-26.1,2.74C307.27,18.41,290.48,37,285.23,59.15,262.42,155.44,402.31,129.08,451,118.57,596.67,87.12,747.13,25.3,898,55.84c33.8,6.85,71.63,23.65,79.57,58.05,3,13.08.29,28.45-10,36.78-15.55,12.59-41.39,1.15-47.41-18.22s4.27-41.13,20.18-53.25,36.23-16.33,56-18.12c36.55-3.31,73.94.65,108.35,13.7,31.49,11.94,60.19,31.28,92.56,40.42,44.26,12.51,93.69,4.15,131.7-22.27"/><polygon class="cls-2" points="817.71 42.88 815.54 59.36 802.25 49.23 788.98 39.1 804.43 32.74 819.88 26.4 817.71 42.88"/><polygon class="cls-2" points="51.4 185.46 70.76 174.91 70.27 197.06 69.77 219.21 50.9 207.6 32.03 196 51.4 185.46"/><polygon class="cls-2" points="1221.59 110.18 1235.97 93.48 1243.33 114.37 1250.7 135.28 1228.94 131.07 1207.19 126.87 1221.59 110.18"/><polygon class="cls-2" points="404.01 110.56 425.81 107.25 417.81 127.9 409.79 148.55 396 131.22 382.22 113.87 404.01 110.56"/><polygon class="cls-2" points="954.27 148.64 958.18 164.8 942.13 160.13 926.1 155.46 938.23 143.97 950.36 132.48 954.27 148.64"/></g></g></svg>