<svg xmlns="http://www.w3.org/2000/svg" width="1296.274" height="315.09" viewBox="0 0 1296.274 315.09">
  <g id="Group_64" data-name="Group 64" transform="translate(-0.26 -82.488)">
    <path id="Path_78" data-name="Path 78" d="M0,95.931c83.1-1.754,159.871-2.421,236.69,29.323s142.819,104.951,139.489,188c-1.1,27.466-13.6,58.513-40.154,65.617-12.591,3.369-26.166.554-38-4.914-51.128-23.63-67.812-94.979-42.548-145.32s81.906-79.254,137.982-84.543,112.047,9.577,165.4,27.625c72.767,24.614,143.636,55.526,209.106,95.708,21.841,13.4,43.185,27.892,66.707,38.063,51.72,22.363,110.3,22.332,166.341,16.467a870.168,870.168,0,0,0,123.669-22.066c56.709-14.411,112.818-34.681,171.312-36.122" transform="translate(0.387)" fill="none" stroke="#e26a2c" stroke-miterlimit="10" stroke-width="12"/>
    <path id="Path_79" data-name="Path 79" d="M142.1,104.289l-3.277-21.8,20.642,8.044,20.642,8.044-17.365,13.758-17.365,13.758Z" transform="translate(0.387)" fill="#009245"/>
    <path id="Path_80" data-name="Path 80" d="M572.922,190.937l-20.082-9.1,17.971-12.956,17.971-12.956,2.112,22.053L593,200.035Z" transform="translate(0.387)" fill="#009245"/>
    <path id="Path_81" data-name="Path 81" d="M1067.443,316.036,1057.3,296.463l22.134.944,22.134.944-11.989,18.63-11.989,18.63Z" transform="translate(0.387)" fill="#009245"/>
    <path id="Path_82" data-name="Path 82" d="M308.418,378.154l.943-19.424,16.459,10.534L342.28,379.8l-17.4,8.89-17.4,8.89Z" transform="translate(0.387)" fill="#009245"/>
  </g>
</svg>
