<svg xmlns="http://www.w3.org/2000/svg" viewBox="0 0 1333.73 208.08"><defs><style>.cls-1{fill:none;stroke:#e26a2c;stroke-linecap:round;stroke-linejoin:round;stroke-width:12px;}.cls-2{fill:#009245;}</style></defs><g id="Layer_2" data-name="Layer 2"><g id="Layer_1-2" data-name="Layer 1"><path class="cls-1" d="M6,104.72c52.05-29.9,111.72-49.4,171.68-53.8,32-2.35,65.28-1.28,96.22,7.92,25.75,7.65,68.59,27,69.15,58.91.27,15.48-11.35,30.17-26.31,34.16s-31.94-2.55-41-15.13-9.92-30.28-2.9-44.08c4.58-9,12.11-16.24,20.57-21.74,26.69-17.32,61.45-17.41,92.2-9.24S444.57,85.43,473.79,98c95,40.84,193.14,60.08,296.63,53,70-4.82,139.55-19.41,207.64-35.2,14.59-3.38,29-7.85,42.5-14.34,17-8.13,33-20.23,40.71-37.4s4.78-40-10.34-51.19C1033.41-.17,1007.57,7,990.85,21,976.56,33,966,49.91,963.91,68.44c-4.5,40.78,32.61,62.56,67.51,69.49,50.32,10,102,8.49,153.06,13.44s103.5,17.38,143.25,50.71"/><polygon class="cls-2" points="311.81 143.54 328.24 146.09 317.81 159.14 307.38 172.18 301.37 156.59 295.38 141 311.81 143.54"/><polygon class="cls-2" points="568.44 122.51 587.8 111.96 587.31 134.11 586.81 156.26 567.94 144.65 549.07 133.05 568.44 122.51"/><polygon class="cls-2" points="1169.1 156.82 1159.71 136.88 1181.79 138.67 1203.88 140.46 1191.18 158.62 1178.48 176.77 1169.1 156.82"/><polygon class="cls-2" points="103.62 52.29 113.17 32.41 125.72 50.67 138.26 68.94 116.17 70.55 94.07 72.15 103.62 52.29"/><polygon class="cls-2" points="1071.49 40.36 1085.03 50.01 1069.85 56.99 1054.67 63.95 1056.31 47.33 1057.96 30.71 1071.49 40.36"/></g></g></svg>