<svg xmlns="http://www.w3.org/2000/svg" viewBox="0 0 1314.71 271.22"><defs><style>.cls-1{fill:none;stroke:#e26a2c;stroke-linecap:round;stroke-linejoin:round;stroke-width:12px;}.cls-2{fill:#009245;}</style></defs><g id="Layer_2" data-name="Layer 2"><g id="Layer_3" data-name="Layer 3"><path class="cls-1" d="M6,265.22c32-15.92,42.85-28.47,90.69-38.55a520.36,520.36,0,0,1,193.06-4c42.45,7.14,84,19.57,126.88,23.67,88.66,8.48,180.31-20.84,247.58-79.21,31.64-27.46,59.25-64.42,59.59-106.31C724,35.77,708.76,7,683.7,6c-21-.8-38.35,19.89-39.48,40.85s10.34,40.82,25,55.84c39.81,40.78,102,52.61,158.54,45.19S937,116.46,989.53,94.31s107.19-43,164.18-43.46,126.27,30.7,155,79.91"/><polygon class="cls-2" points="714.71 26.47 725.99 14.26 731 30.2 736 46.13 719.71 42.41 703.43 38.68 714.71 26.47"/><polygon class="cls-2" points="494.64 225.93 514 215.38 513.51 237.53 513.01 259.68 494.14 248.07 475.27 236.47 494.64 225.93"/><polygon class="cls-2" points="1167.3 54.24 1157.91 34.3 1179.99 36.09 1202.08 37.88 1189.38 56.04 1176.68 74.19 1167.3 54.24"/><polygon class="cls-2" points="85.93 226.42 85.93 204.37 105.15 215.39 124.36 226.42 105.15 237.44 85.93 248.46 85.93 226.42"/></g></g></svg>