<svg xmlns="http://www.w3.org/2000/svg" width="1148.601" height="4288.025" viewBox="0 0 1148.601 4288.025">
  <g id="Group_66" data-name="Group 66" transform="translate(-86.993 -729.128)">
    <g id="Path_74" data-name="Path 74" transform="translate(100.797 729.128)" fill="none" stroke-miterlimit="10">
      <path d="M865.465,4243.757c37.438-15.747,68.788-48.014,94.3-89.894s45.178-93.37,59.255-147.561a868.475,868.475,0,0,0,25.7-163.766c3.142-52.683.94-101.156-6.357-138.511a385.52,385.52,0,0,0-17.494-62.154,315.032,315.032,0,0,0-28.23-57.155,259.043,259.043,0,0,0-39.865-49.042,233.534,233.534,0,0,0-52.4-37.816c-24.829-13.122-50.859-21.545-77.609-26.743s-54.22-7.173-81.929-7.4-55.658,1.3-83.365,3.089-55.173,3.86-81.917,4.723c-9.606.31-20.255.908-31.362,1.306s-22.673.593-34.114.1a192.812,192.812,0,0,1-33.367-4.042c-10.609-2.364-20.51-5.907-29.12-11.121a45.085,45.085,0,0,1-7.432-5.627,41.388,41.388,0,0,1-6.056-7.071,34.345,34.345,0,0,1-4.089-8.187,28.607,28.607,0,0,1-1.532-8.976,28.3,28.3,0,0,1,2.445-11.586,35.782,35.782,0,0,1,6.647-9.946,45.8,45.8,0,0,1,9.59-7.78,49.076,49.076,0,0,1,11.276-5.087,54.476,54.476,0,0,1,13.628-2.3,53.721,53.721,0,0,1,13.76,1.2,47.129,47.129,0,0,1,12.747,4.781,40.121,40.121,0,0,1,10.589,8.455,34.918,34.918,0,0,1,6.812,11.882,38.756,38.756,0,0,1,2.045,13.585,34.781,34.781,0,0,1-2.925,13.158,28.261,28.261,0,0,1-8.1,10.6,33.063,33.063,0,0,1-6.326,3.953,45.481,45.481,0,0,1-7.007,2.656,72.273,72.273,0,0,1-7.407,1.715c-2.5.456-5.028.813-7.524,1.135q-9.19,1.18-18.421,1.949t-18.485,1.236q-9.254.468-18.523.688t-18.534.306c-19.842.183-39.744-.014-59.619-.783s-39.723-2.113-59.457-4.223-39.353-4.987-58.772-8.823a542.19,542.19,0,0,1-57.565-14.586c-7.092-2.23-14.152-4.63-21.126-7.252s-13.863-5.466-20.613-8.584-13.359-6.51-19.775-10.229a198.631,198.631,0,0,1-18.613-12.187,143.158,143.158,0,0,1-45.814-56.009c-9.7-21.016-14.56-44.016-16.72-67.91s-1.627-48.684-.553-73.278,2.688-48.994,2.688-72.11V1916.2q0-8.953.055-17.911t.092-17.918q.037-8.96.018-17.918t-.165-17.91c-.2-12.292-.854-25.029-1.482-37.964s-1.232-26.067-1.338-39.147a339.8,339.8,0,0,1,1.65-38.837,187.963,187.963,0,0,1,7.481-37.035,79.713,79.713,0,0,1,11.193-22.309,64.289,64.289,0,0,1,17.319-16.7,45.514,45.514,0,0,1,21.836-7.332,46.434,46.434,0,0,1,24.744,5.806A48.133,48.133,0,0,1,121.147,1659a52.306,52.306,0,0,1,8.4,10.613A53.332,53.332,0,0,1,135,1682.029a50.414,50.414,0,0,1,2.058,13.392,51.535,51.535,0,0,1-1.59,13.433,55.588,55.588,0,0,1-4.909,12.624,56.737,56.737,0,0,1-7.794,11.108,54.143,54.143,0,0,1-10.244,8.885,52.983,52.983,0,0,1-7.782,4.287,50.922,50.922,0,0,1-8.393,2.9,46.9,46.9,0,0,1-8.739,1.335,42.5,42.5,0,0,1-8.82-.413,44.813,44.813,0,0,1-11.885-3.609,57.035,57.035,0,0,1-10.68-6.467,77.5,77.5,0,0,1-9.43-8.531,103.335,103.335,0,0,1-8.134-9.8,145.335,145.335,0,0,1-11.535-18.514,163.576,163.576,0,0,1-8.807-19.975,185.24,185.24,0,0,1-6.253-20.994,207.083,207.083,0,0,1-3.872-21.571A294.16,294.16,0,0,1,6.026,1599.7a380.843,380.843,0,0,1,2.829-41.052c1.659-13.68,3.974-27.3,6.771-40.7s6.075-26.583,9.658-39.38q4.968-17.741,11.222-35.094,6.251-17.336,13.768-34.18,7.513-16.827,16.27-33.058,8.753-16.214,18.729-31.729,12-18.658,25.756-36.121,13.737-17.427,29.133-33.443a431.378,431.378,0,0,1,32.337-30.33,412.471,412.471,0,0,1,35.366-26.786,491.31,491.31,0,0,1,67.912-38.085,702.461,702.461,0,0,1,72.61-28.658c24.774-8.331,50.013-15.614,75.4-22.374s50.917-13,76.276-19.235c37.158-9.139,74.4-18.47,111.442-28.5s73.893-20.749,110.268-32.671,72.275-25.043,107.423-39.868A1016.92,1016.92,0,0,0,932.1,958.344c9.391-5.273,18.743-10.769,27.877-16.6s18.049-11.99,26.564-18.594a247.694,247.694,0,0,0,24.164-21.249,190.18,190.18,0,0,0,20.677-24.563,149.376,149.376,0,0,0,15.666-28.482,139.309,139.309,0,0,0,8.943-31.209,116.753,116.753,0,0,0,.852-31.9,97.551,97.551,0,0,0-8.609-30.564,75.267,75.267,0,0,0-4.555-8.3,59.073,59.073,0,0,0-5.677-7.559,45.309,45.309,0,0,0-6.853-6.312,36.494,36.494,0,0,0-8.085-4.555,32.538,32.538,0,0,0-23.408-.573c-7.36,2.565-14.139,7.573-19.924,14.08a78.233,78.233,0,0,0-13.954,23.079,76.458,76.458,0,0,0-5.5,26.424,89.623,89.623,0,0,0,2.8,23.474,81.548,81.548,0,0,0,8.958,21.816,56.417,56.417,0,0,0,14.807,16.629,41.4,41.4,0,0,0,20.343,7.915,42.172,42.172,0,0,0,24.921-5.027c7.427-4.024,13.985-10.118,19.705-17.443A124.075,124.075,0,0,0,1066.493,814a189.945,189.945,0,0,0,9.841-27.2,1180.891,1180.891,0,0,0,28.122-126.99A1195.139,1195.139,0,0,0,1118.537,530.5a1195.151,1195.151,0,0,0-.043-130.071,1180.924,1180.924,0,0,0-14.252-129.283l.768,4.2q-2.954-18.732-7.481-37.167-4.52-18.414-10.57-36.405-6.043-17.971-13.574-35.395-7.524-17.4-16.493-34.136c-5.247-9.785-10.815-19.683-16.794-29.43s-12.367-19.341-19.257-28.519a253.635,253.635,0,0,0-22.259-26.019,185.633,185.633,0,0,0-25.8-21.93,111.394,111.394,0,0,0-29.669-14.6A121.44,121.44,0,0,0,877.523,9.43,111.4,111.4,0,0,0,846.9,21.915a80.693,80.693,0,0,0-19.842,16.98,77.149,77.149,0,0,0-13.55,22.772A54.531,54.531,0,0,0,810.1,86.9a46.144,46.144,0,0,0,10.568,24.369,47.006,47.006,0,0,0,12.284,10.437,64.244,64.244,0,0,0,14.977,6.377,99.99,99.99,0,0,0,16.482,3.223,159.588,159.588,0,0,0,16.8.975q9.784.09,19.56-.44t19.493-1.677q9.717-1.146,19.348-2.905t19.125-4.124" stroke="none"/>
      <path d="M 867.7858276367188 4249.27392578125 L 863.1446533203125 4238.23974609375 C 899.6435546875 4222.88818359375 930.2607421875 4191.02685546875 955.2099609375 4149.5869140625 C 980.1593017578125 4108.1474609375 999.4405517578125 4057.12939453125 1013.267700195312 4003.46484375 C 1027.094848632812 3949.80029296875 1035.4677734375 3893.48876953125 1038.600219726562 3841.463134765625 C 1041.732666015625 3789.4375 1039.624755859375 3741.697509765625 1032.490112304688 3705.174072265625 C 1027.899658203125 3681.673583984375 1021.462280273438 3659.56396484375 1013.31591796875 3639.0517578125 C 1005.16943359375 3618.53955078125 995.3139038085938 3599.624755859375 983.8872680664062 3582.514404296875 C 972.4607543945312 3565.40380859375 959.4630126953125 3550.096923828125 945.0320434570312 3536.800537109375 C 930.60107421875 3523.504638671875 914.7369384765625 3512.21923828125 897.5775146484375 3503.150634765625 C 885.0217895507812 3496.514404296875 872.135498046875 3491.104736328125 858.984619140625 3486.722412109375 C 845.8336181640625 3482.3408203125 832.4180908203125 3478.987060546875 818.8038940429688 3476.462158203125 C 805.189697265625 3473.93701171875 791.3768920898438 3472.2421875 777.431396484375 3471.178466796875 C 763.48583984375 3470.1142578125 749.40771484375 3469.68115234375 735.262939453125 3469.68115234375 C 727.4556274414062 3469.68115234375 719.6285400390625 3469.812744140625 711.7923583984375 3470.04296875 C 703.9561767578125 3470.2734375 696.1107788085938 3470.601806640625 688.2669067382812 3470.995849609375 C 680.4230346679688 3471.3896484375 672.580810546875 3471.8486328125 664.7506713867188 3472.339599609375 C 656.9205932617188 3472.830078125 649.1026611328125 3473.3525390625 641.3076171875 3473.873291015625 C 635.8931884765625 3474.235107421875 630.4326782226562 3474.60009765625 624.9515380859375 3474.95458984375 C 619.4703369140625 3475.30908203125 613.968505859375 3475.653564453125 608.4713745117188 3475.97412109375 C 602.9741821289062 3476.294921875 597.4817504882812 3476.592529296875 592.0194091796875 3476.852783203125 C 586.5570068359375 3477.11328125 581.1248779296875 3477.3369140625 575.7481689453125 3477.5107421875 C 574.503662109375 3477.551025390625 573.2415771484375 3477.595947265625 571.9631958007812 3477.64453125 C 570.684814453125 3477.693359375 569.39013671875 3477.745849609375 568.0805053710938 3477.801513671875 C 566.7708129882812 3477.85693359375 565.4461059570312 3477.9150390625 564.107666015625 3477.974853515625 C 562.769287109375 3478.0341796875 561.4171142578125 3478.095703125 560.0524291992188 3478.157470703125 C 557.2423706054688 3478.28466796875 554.38037109375 3478.414306640625 551.4769897460938 3478.537353515625 C 548.5736083984375 3478.66064453125 545.6287231445312 3478.776611328125 542.65283203125 3478.876953125 C 539.6769409179688 3478.977294921875 536.669921875 3479.0615234375 533.6422119140625 3479.120361328125 C 530.6145629882812 3479.179931640625 527.5662231445312 3479.2138671875 524.5076293945312 3479.21435546875 C 519.3922729492188 3479.21435546875 514.2476806640625 3479.118408203125 509.12158203125 3478.884765625 C 503.9955444335938 3478.65087890625 498.8880310058594 3478.27880859375 493.8468017578125 3477.72607421875 C 488.8055725097656 3477.173095703125 483.8306274414062 3476.438720703125 478.9697875976562 3475.480712890625 C 474.10888671875 3474.5224609375 469.3620910644531 3473.341064453125 464.7771301269531 3471.892333984375 C 459.4859619140625 3472.38525390625 454.2227172851562 3472.7841796875 449.0217895507812 3473.108154296875 C 443.8208618164062 3473.431640625 438.6823425292969 3473.679931640625 433.6406860351562 3473.872314453125 C 428.5990295410156 3474.064697265625 423.6541137695312 3474.2001953125 418.840576171875 3474.298095703125 C 414.0269775390625 3474.39599609375 409.3447265625 3474.456298828125 404.8282470703125 3474.498291015625 C 403.6980895996094 3474.509033203125 402.5702819824219 3474.51806640625 401.4453125 3474.52587890625 C 400.3203430175781 3474.53369140625 399.1982421875 3474.5400390625 398.0793762207031 3474.54541015625 C 396.9605102539062 3474.55078125 395.8448486328125 3474.5546875 394.73291015625 3474.55712890625 C 393.6209716796875 3474.5595703125 392.5127258300781 3474.56103515625 391.4085388183594 3474.56103515625 C 368.5518798828125 3474.5615234375 347.0673828125 3474.00146484375 326.7139587402344 3472.85205078125 C 306.360595703125 3471.702392578125 287.1382751464844 3469.963623046875 268.8060607910156 3467.606201171875 C 250.4738464355469 3465.248779296875 233.0317077636719 3462.27294921875 216.2385711669922 3458.649169921875 C 199.4454650878906 3455.02587890625 183.3013916015625 3450.7548828125 167.5653076171875 3445.806640625 C 158.9637603759766 3443.10205078125 150.8861999511719 3440.295654296875 143.2728881835938 3437.359619140625 C 135.6595306396484 3434.423095703125 128.5104522705078 3431.35693359375 121.7657775878906 3428.132568359375 C 115.0211181640625 3424.908203125 108.6808929443359 3421.525146484375 102.6853256225586 3417.955078125 C 96.68975067138672 3414.38525390625 91.03884124755859 3410.628173828125 85.67281341552734 3406.655029296875 C 67.45086669921875 3393.16455078125 54.06000137329102 3377.4814453125 44.28432846069336 3360.318359375 C 34.50865936279297 3343.155029296875 28.34820365905762 3324.511474609375 24.5870532989502 3305.09912109375 C 20.82590293884277 3285.68701171875 19.46406555175781 3265.50634765625 19.2856559753418 3245.26904296875 C 19.10725212097168 3225.031494140625 20.11227035522461 3204.737548828125 21.08483695983887 3185.098388671875 C 21.31177139282227 3180.515869140625 21.53555488586426 3175.996826171875 21.74357604980469 3171.53173828125 C 21.95158958435059 3167.066650390625 22.14385032653809 3162.6552734375 22.30774688720703 3158.288330078125 C 22.47164535522461 3153.921142578125 22.607177734375 3149.598388671875 22.70173645019531 3145.31005859375 C 22.79628753662109 3141.021484375 22.84987258911133 3136.767333984375 22.84987258911133 3132.5380859375 L 22.84987258911133 2964.663818359375 L 22.84987258911133 2775.191650390625 L 22.84987258911133 2575.90234375 L 22.84987258911133 2378.5791015625 L 22.84987258911133 2194.999755859375 L 22.84987258911133 2036.948364257812 L 22.84987258911133 1916.202880859375 C 22.84987258911133 1914.2109375 22.85260391235352 1912.218627929688 22.85738372802734 1910.226318359375 C 22.86216354370117 1908.233764648438 22.86898994445801 1906.2412109375 22.87716293334961 1904.24853515625 C 22.88533592224121 1902.255737304688 22.89485740661621 1900.262939453125 22.9050407409668 1898.269897460938 C 22.91522216796875 1896.27685546875 22.92606735229492 1894.283813476562 22.93687438964844 1892.290405273438 C 22.95863151550293 1888.319213867188 22.98041343688965 1884.34765625 22.99677467346191 1880.376098632812 C 23.01314544677734 1876.404907226562 23.02408790588379 1872.43359375 23.02415657043457 1868.462524414062 C 23.02422523498535 1864.491577148438 23.01341819763184 1860.52099609375 22.98628807067871 1856.551147460938 C 22.95915031433105 1852.581420898438 22.91567993164062 1848.612548828125 22.85042762756348 1844.644653320312 C 22.80387496948242 1841.811645507812 22.73321342468262 1838.954833984375 22.64434623718262 1836.077270507812 C 22.55548095703125 1833.19970703125 22.44840240478516 1830.301147460938 22.32901954650879 1827.385131835938 C 22.20963478088379 1824.468994140625 22.07793045043945 1821.53515625 21.93980979919434 1818.586791992188 C 21.80168914794922 1815.638305664062 21.65715980529785 1812.67529296875 21.51210594177246 1809.700805664062 C 21.10558319091797 1801.3603515625 20.69623756408691 1792.961669921875 20.4066162109375 1784.5546875 C 20.11700439453125 1776.1474609375 19.9471263885498 1767.73193359375 20.01955413818359 1759.358154296875 C 20.09197425842285 1750.984252929688 20.40670776367188 1742.65234375 21.08631324768066 1734.412475585938 C 21.76592063903809 1726.17236328125 22.81039810180664 1718.0244140625 24.34231948852539 1710.0185546875 C 21.51935195922852 1705.03564453125 18.92970275878906 1699.825317382812 16.58259010314941 1694.411865234375 C 14.23547554016113 1688.998413085938 12.1309118270874 1683.3818359375 10.27811431884766 1677.586791992188 C 8.425309181213379 1671.791625976562 6.824278354644775 1665.81787109375 5.484244346618652 1659.690063476562 C 4.144210815429688 1653.562377929688 3.06517481803894 1647.280395507812 2.256352424621582 1640.869018554688 C 0.7810140252113342 1629.17431640625 0.03755716606974602 1616.95654296875 0.02347037568688393 1604.239379882812 C 0.009383584372699261 1591.521850585938 0.7246668934822083 1578.30517578125 2.166785955429077 1564.61328125 C 3.608912706375122 1550.921508789062 5.777883052825928 1536.754028320312 8.671185493469238 1522.135009765625 C 11.56447982788086 1507.516357421875 15.18209934234619 1492.446044921875 19.52152252197266 1476.9482421875 C 22.91955947875977 1464.812744140625 26.74485206604004 1452.858032226562 30.98855972290039 1441.103759765625 C 35.23225402832031 1429.349243164062 39.89436340332031 1417.795288085938 44.96603775024414 1406.461791992188 C 50.03769302368164 1395.128295898438 55.5189094543457 1384.015014648438 61.40081024169922 1373.141845703125 C 67.28271484375 1362.2685546875 73.56529998779297 1351.635498046875 80.23973083496094 1341.262573242188 C 88.51556396484375 1328.400390625 97.40829467773438 1315.978759765625 106.845344543457 1304.072509765625 C 116.2824020385742 1292.16650390625 126.2637634277344 1280.775756835938 136.7168579101562 1269.975708007812 C 147.1699676513672 1259.17578125 158.0948028564453 1248.966186523438 169.4187927246094 1239.422119140625 C 180.7428131103516 1229.87841796875 192.4659729003906 1221 204.5157165527344 1212.8623046875 C 225.9921417236328 1198.358276367188 248.5420837402344 1185.896606445312 271.8441162109375 1174.979248046875 C 295.1461486816406 1164.06201171875 319.2003173828125 1154.689453125 343.6851501464844 1146.36376953125 C 368.1699523925781 1138.038452148438 393.0854797363281 1130.760009765625 418.1102905273438 1124.031005859375 C 443.1351318359375 1117.302124023438 468.2692565917969 1111.123046875 493.1912536621094 1104.995727539062 L 498.632080078125 1103.658081054688 C 536.7200927734375 1094.289916992188 574.5091552734375 1084.781616210938 611.8092041015625 1074.643188476562 C 649.1091918945312 1064.504516601562 685.920166015625 1053.735473632812 722.0520629882812 1041.845336914062 C 758.1839599609375 1029.955078125 793.6366577148438 1016.943603515625 828.2200927734375 1002.320495605469 C 862.8035278320312 987.697265625 896.5176391601562 971.4623413085938 929.1724243164062 953.125 C 937.6788330078125 948.3482666015625 946.4442749023438 943.2433471679688 955.2000732421875 937.71435546875 C 963.9559326171875 932.185302734375 972.7021484375 926.23193359375 981.1699829101562 919.7582397460938 C 989.6378173828125 913.2845458984375 997.8272705078125 906.2903442382812 1005.469909667969 898.6795043945312 C 1013.112548828125 891.0684814453125 1020.208129882812 882.8408813476562 1026.487915039062 873.9002685546875 C 1027.163818359375 872.9379272460938 1027.826538085938 871.9696655273438 1028.475830078125 870.9957885742188 C 1029.125 870.0218505859375 1029.760864257812 869.0424194335938 1030.38330078125 868.0576782226562 C 1031.005859375 867.0729370117188 1031.614868164062 866.0830078125 1032.210571289062 865.0880737304688 C 1032.806274414062 864.0930786132812 1033.388549804688 863.0931396484375 1033.957275390625 862.0886840820312 C 1032.307983398438 862.943603515625 1030.611572265625 863.7109985351562 1028.8671875 864.3811645507812 C 1027.122680664062 865.0513916015625 1025.330322265625 865.6245727539062 1023.488830566406 866.0907592773438 C 1021.647399902344 866.55712890625 1019.757080078125 866.9166259765625 1017.817016601562 867.1595458984375 C 1015.876892089844 867.4024658203125 1013.887023925781 867.5288696289062 1011.846313476562 867.5292358398438 C 1011.415405273438 867.5293579101562 1010.982666015625 867.5237426757812 1010.547790527344 867.5123901367188 C 1010.112976074219 867.5010986328125 1009.676086425781 867.4840087890625 1009.236877441406 867.4611206054688 C 1008.797668457031 867.438232421875 1008.356262207031 867.4096069335938 1007.912414550781 867.3750610351562 C 1007.468505859375 867.3404541015625 1007.02197265625 867.2999267578125 1006.57275390625 867.2535400390625 C 998.2072143554688 866.3876342773438 990.720947265625 863.3732299804688 984.206298828125 858.7982177734375 C 977.6915893554688 854.2232666015625 972.1485595703125 848.0877075195312 967.66943359375 840.9796142578125 C 963.1902465820312 833.8715209960938 959.7750854492188 825.791015625 957.5162353515625 817.3261108398438 C 955.2572021484375 808.8612060546875 954.1543579101562 800.0118408203125 954.3001098632812 791.3660888671875 C 954.4037475585938 785.2063598632812 955.3456420898438 778.9080810546875 956.9912719726562 772.7323608398438 C 958.636962890625 766.5567626953125 960.9865112304688 760.503662109375 963.9053955078125 754.8342895507812 C 966.82421875 749.1648559570312 970.3125610351562 743.8789672851562 974.2357788085938 739.2379760742188 C 978.158935546875 734.596923828125 982.51708984375 730.6006469726562 987.1757202148438 727.5101318359375 C 989.0637817382812 726.2575073242188 990.9743041992188 725.1602783203125 992.902099609375 724.2189331054688 C 994.8298950195312 723.2775268554688 996.7750244140625 722.4920043945312 998.7318725585938 721.8632202148438 C 1000.688781738281 721.2343139648438 1002.657775878906 720.761962890625 1004.63330078125 720.4468383789062 C 1006.608825683594 720.1317138671875 1008.590942382812 719.973876953125 1010.574340820312 719.973876953125 C 1011.806274414062 719.973876953125 1013.038513183594 720.0347900390625 1014.270080566406 720.1566772460938 C 1015.501708984375 720.278564453125 1016.732666015625 720.4614868164062 1017.961547851562 720.7055053710938 C 1019.190368652344 720.9495239257812 1020.417419433594 721.254638671875 1021.641296386719 721.6211547851562 C 1022.865051269531 721.98779296875 1024.085693359375 722.4156494140625 1025.302124023438 722.905029296875 C 1028.192016601562 724.0678100585938 1030.97216796875 725.5822143554688 1033.6259765625 727.4309692382812 C 1036.279663085938 729.2797241210938 1038.806884765625 731.4627685546875 1041.191284179688 733.9627075195312 C 1043.57568359375 736.4627075195312 1045.817016601562 739.2796630859375 1047.89892578125 742.3961181640625 C 1049.980834960938 745.5125732421875 1051.9033203125 748.9285888671875 1053.649536132812 752.6267700195312 C 1055.564819335938 756.6826782226562 1057.19384765625 760.8867797851562 1058.540649414062 765.2105712890625 C 1059.887329101562 769.5343017578125 1060.95166015625 773.977783203125 1061.737670898438 778.5123901367188 C 1062.523681640625 783.0469360351562 1063.03125 787.672607421875 1063.26416015625 792.3607788085938 C 1063.4970703125 797.0490112304688 1063.455444335938 801.7999877929688 1063.143188476562 806.5850219726562 C 1064.052612304688 804.4031982421875 1064.886840820312 802.2767944335938 1065.647705078125 800.2388305664062 C 1066.408813476562 798.200927734375 1067.096557617188 796.2515869140625 1067.713012695312 794.4237670898438 C 1068.329467773438 792.595947265625 1068.87451171875 790.8896484375 1069.350219726562 789.3380737304688 C 1069.826049804688 787.7865600585938 1070.232177734375 786.3896484375 1070.571044921875 785.180419921875 C 1082.185791015625 743.7308959960938 1091.496704101562 701.5557250976562 1098.488037109375 658.954345703125 C 1105.479248046875 616.3529663085938 1110.150756835938 573.3253784179688 1112.486206054688 530.1714477539062 C 1114.821655273438 487.0174865722656 1114.821166992188 443.7370300292969 1112.468505859375 400.6296997070312 C 1110.115966796875 357.5223693847656 1105.411010742188 314.5882263183594 1098.337768554688 272.1269836425781 L 1098.421630859375 272.1123046875 C 1096.41357421875 260.1102600097656 1093.923950195312 248.2284851074219 1090.959106445312 236.4858093261719 C 1087.994262695312 224.7431335449219 1084.554077148438 213.1394500732422 1080.645141601562 201.6936950683594 C 1076.736206054688 190.2479400634766 1072.358520507812 178.9601287841797 1067.518310546875 167.8489837646484 C 1062.677978515625 156.7378540039062 1057.375244140625 145.8034515380859 1051.616333007812 135.0646209716797 C 1046.985107421875 126.4287338256836 1041.880981445312 117.2631759643555 1036.24169921875 107.9622650146484 C 1030.6025390625 98.66136169433594 1024.427978515625 89.22517395019531 1017.656005859375 80.04798889160156 C 1010.884033203125 70.87079620361328 1003.514587402344 61.95259857177734 995.4854736328125 53.68774032592773 C 987.4562377929688 45.42287826538086 978.7673950195312 37.81135559082031 969.3563842773438 31.24750328063965 C 964.78369140625 28.05851554870605 959.9493408203125 25.2634391784668 954.91943359375 22.86465072631836 C 949.8895263671875 20.4659252166748 944.6640625 18.46342277526855 939.3087768554688 16.85952377319336 C 933.9535522460938 15.25562286376953 928.4686889648438 14.05038356781006 922.9199829101562 13.24612045288086 C 917.3712158203125 12.44185638427734 911.7586669921875 12.03850650787354 906.1483154296875 12.03850650787354 C 901.2233276367188 12.03850650787354 896.3001098632812 12.34919261932373 891.4230346679688 12.97208595275879 C 886.5458984375 13.59497928619385 881.71484375 14.53014183044434 876.974365234375 15.77909469604492 C 872.2338256835938 17.02810859680176 867.5838623046875 18.59091186523438 863.06884765625 20.46915054321289 C 858.5538940429688 22.34745025634766 854.1738891601562 24.54112434387207 849.9732055664062 27.05187606811523 C 845.7227172851562 29.59246063232422 841.693115234375 32.66473770141602 837.9920043945312 36.11947631835938 C 834.2909545898438 39.57421875 830.9183959960938 43.41143035888672 827.9819946289062 47.48181915283203 C 825.0457153320312 51.55220794677734 822.5455322265625 55.85584259033203 820.5892333984375 60.24349212646484 C 818.6329956054688 64.63108062744141 817.2205810546875 69.10269165039062 816.459716796875 73.50909423828125 C 815.9085693359375 76.70063781738281 815.6807250976562 79.8082275390625 815.7748413085938 82.82692718505859 C 815.8690185546875 85.84562683105469 816.2850952148438 88.77537536621094 817.0218505859375 91.61123657226562 C 817.7586669921875 94.44710540771484 818.8162231445312 97.18909454345703 820.193115234375 99.83226776123047 C 821.570068359375 102.4754333496094 823.2664794921875 105.0197372436523 825.281005859375 107.4602890014648 C 827.8442993164062 110.565559387207 830.9111938476562 113.2796020507812 834.4981689453125 115.6080093383789 C 838.0850830078125 117.9363555908203 842.1919555664062 119.8790130615234 846.8351440429688 121.4414520263672 C 851.4783325195312 123.0038909912109 856.6578369140625 124.1860504150391 862.3899536132812 124.9934844970703 C 868.1220703125 125.8009719848633 874.4068603515625 126.2336654663086 881.260498046875 126.2971038818359 C 881.4930419921875 126.2992401123047 881.7257080078125 126.3011245727539 881.95849609375 126.3027114868164 C 882.19140625 126.3042907714844 882.4243774414062 126.3056335449219 882.6573486328125 126.3067245483398 C 882.8902587890625 126.3078231811523 883.123291015625 126.3086776733398 883.3561401367188 126.3092193603516 C 883.5889892578125 126.3097686767578 883.8216552734375 126.3100128173828 884.0541381835938 126.3100128173828 C 890.22216796875 126.3100128173828 896.386962890625 126.121337890625 902.53857421875 125.7451400756836 C 908.6902465820312 125.3688888549805 914.8287353515625 124.8051071166992 920.9443969726562 124.0550308227539 C 927.0599975585938 123.3049545288086 933.152587890625 122.3684539794922 939.2124633789062 121.2467422485352 C 945.2723999023438 120.1250991821289 951.2996826171875 118.818244934082 957.2843627929688 117.3272857666016 L 960.1781616210938 128.9421691894531 C 953.9577026367188 130.491943359375 947.6925048828125 131.8503570556641 941.3929443359375 133.0163269042969 C 935.093505859375 134.1822967529297 928.7597045898438 135.1558227539062 922.4022216796875 135.9356079101562 C 916.0446166992188 136.7153930664062 909.6632080078125 137.3014526367188 903.2684326171875 137.6925659179688 C 896.8737182617188 138.083740234375 890.465576171875 138.2799682617188 884.0545654296875 138.280029296875 C 883.8120727539062 138.280029296875 883.56982421875 138.2797241210938 883.3278198242188 138.2791748046875 C 883.0858154296875 138.2786254882812 882.8439331054688 138.2777709960938 882.60205078125 138.2766723632812 C 882.3602294921875 138.2755889892578 882.1183471679688 138.2741851806641 881.8763427734375 138.2725372314453 C 881.63427734375 138.2708282470703 881.39208984375 138.2688903808594 881.149658203125 138.2666320800781 C 873.3584594726562 138.1944885253906 866.1841430664062 137.6663208007812 859.607666015625 136.6754608154297 C 853.03125 135.6845855712891 847.052734375 134.2310028076172 841.6530151367188 132.3078918457031 C 836.25341796875 130.3847808837891 831.4326171875 127.9921493530273 827.1717529296875 125.1232223510742 C 822.9108276367188 122.2542953491211 819.2097778320312 118.9090805053711 816.0496215820312 115.0807037353516 C 813.4911499023438 111.9810943603516 811.3262329101562 108.7139282226562 809.5615234375 105.3046646118164 C 807.7967529296875 101.8953399658203 806.4322509765625 98.34397888183594 805.4745483398438 94.67596435546875 C 804.5169067382812 91.00788879394531 803.966064453125 87.22322082519531 803.8287963867188 83.347412109375 C 803.6915283203125 79.47160339355469 803.9677734375 75.50465393066406 804.6642456054688 71.47195434570312 C 805.5790405273438 66.17410278320312 807.22607421875 60.8588981628418 809.49658203125 55.67812347412109 C 811.76708984375 50.49735260009766 814.6610717773438 45.45100784301758 818.0699462890625 40.69081497192383 C 821.4788818359375 35.93061828613281 825.4025268554688 31.45651435852051 829.732421875 27.42027854919434 C 834.062255859375 23.38410568237305 838.79833984375 19.78580093383789 843.8318481445312 16.77702713012695 C 848.4889526367188 13.9935188293457 853.345458984375 11.56136703491211 858.3517456054688 9.478865623474121 C 863.3580322265625 7.396364688873291 868.5142211914062 5.663514137268066 873.7708129882812 4.278549194335938 C 879.0274047851562 2.89358377456665 884.38427734375 1.856564521789551 889.7921142578125 1.165786623954773 C 895.1998291015625 0.4750087559223175 900.6585083007812 0.1304721534252167 906.1184692382812 0.1304721534252167 C 912.3399658203125 0.1304721534252167 918.5632934570312 0.5775965452194214 924.7156372070312 1.469227313995361 C 930.8679809570312 2.360857963562012 936.949462890625 3.697116851806641 942.8870239257812 5.475447177886963 C 948.8245849609375 7.253777027130127 954.6182861328125 9.474117279052734 960.1953125 12.13403224945068 C 965.7723999023438 14.79388618469238 971.1328125 17.89337539672852 976.20361328125 21.42982292175293 C 986.1351928710938 28.35653686523438 995.2764282226562 36.33609771728516 1003.701049804688 44.96729278564453 C 1012.125549316406 53.59848403930664 1019.833557128906 62.88130950927734 1026.898803710938 72.41442108154297 C 1033.963989257812 81.94753265380859 1040.386352539062 91.73105621337891 1046.239501953125 101.3637161254883 C 1052.0927734375 110.9963073730469 1057.376831054688 120.4780349731445 1062.16552734375 129.4076843261719 C 1068.249389648438 140.7526702880859 1073.837646484375 152.3104400634766 1078.9228515625 164.059814453125 C 1084.00830078125 175.8091888427734 1088.5908203125 187.7502288818359 1092.663330078125 199.8617248535156 C 1096.73583984375 211.9731750488281 1100.29833984375 224.2551574707031 1103.34375 236.6864166259766 C 1106.38916015625 249.1176147460938 1108.917358398438 261.6981506347656 1110.92138671875 274.4067993164062 L 1110.846435546875 274.4195861816406 C 1117.774536132812 316.9859008789062 1122.350341796875 360.0129699707031 1124.589965820312 403.2052917480469 C 1126.82958984375 446.3976135253906 1126.733032226562 489.7550354003906 1124.316040039062 532.98193359375 C 1121.899047851562 576.2088012695312 1117.161743164062 619.30517578125 1110.119995117188 661.97509765625 C 1103.078369140625 704.6451416015625 1093.732055664062 746.888916015625 1082.097290039062 788.4107055664062 C 1081.316772460938 791.1954956054688 1080.212890625 794.8610229492188 1078.757202148438 799.089599609375 C 1077.301513671875 803.3182983398438 1075.494140625 808.10986328125 1073.306762695312 813.14697265625 C 1071.119506835938 818.1839599609375 1068.552368164062 823.4664916992188 1065.5771484375 828.677001953125 C 1062.601928710938 833.8873901367188 1059.218505859375 839.025634765625 1055.39892578125 843.774169921875 C 1054.269653320312 846.9761962890625 1053.02294921875 850.1602783203125 1051.659790039062 853.3178100585938 C 1050.296752929688 856.4751586914062 1048.8173828125 859.6058959960938 1047.222900390625 862.7012939453125 C 1045.628173828125 865.7965698242188 1043.91845703125 868.856689453125 1042.094848632812 871.8727416992188 C 1040.271118164062 874.8888549804688 1038.33349609375 877.8609008789062 1036.282958984375 880.7802734375 C 1029.658813476562 890.2111206054688 1022.218566894531 898.8650512695312 1014.234252929688 906.8499755859375 C 1006.249938964844 914.8347778320312 997.7216186523438 922.1505737304688 988.9212036132812 928.9053344726562 C 980.120849609375 935.6600341796875 971.0486450195312 941.853515625 961.9767456054688 947.5936889648438 C 952.9047241210938 953.3338623046875 943.832763671875 958.6206665039062 935.0332641601562 963.5621948242188 C 902.0507202148438 982.0836181640625 868.0371704101562 998.4719848632812 833.176025390625 1013.224914550781 C 798.3148803710938 1027.977661132812 762.6060180664062 1041.09521484375 726.2330322265625 1053.075073242188 C 689.8600463867188 1065.054565429688 652.82275390625 1075.896606445312 615.3046264648438 1086.098388671875 C 577.7864990234375 1096.300415039062 539.7874755859375 1105.8623046875 501.4909973144531 1115.281860351562 L 496.0491027832031 1116.619506835938 C 471.3818359375 1122.683959960938 446.5046997070312 1128.80029296875 421.7495727539062 1135.450927734375 C 396.9944763183594 1142.101440429688 372.3614501953125 1149.286865234375 348.1825866699219 1157.48974609375 C 324.003662109375 1165.692626953125 300.2789001464844 1174.912963867188 277.3403015136719 1185.63427734375 C 254.4017028808594 1196.355224609375 232.249267578125 1208.576904296875 211.2150573730469 1222.781860351562 C 199.49853515625 1230.694946289062 188.0979919433594 1239.330078125 177.0841369628906 1248.61474609375 C 166.0702667236328 1257.8994140625 155.4430541992188 1267.833251953125 145.2731018066406 1278.343872070312 C 135.1031799316406 1288.854248046875 125.3905487060547 1299.941040039062 116.2058563232422 1311.531372070312 C 107.0211639404297 1323.121826171875 98.36440277099609 1335.215576171875 90.30622100830078 1347.73974609375 C 83.79346466064453 1357.861694335938 77.66282653808594 1368.23779296875 71.92293548583984 1378.849243164062 C 66.18305969238281 1389.460327148438 60.83392715454102 1400.306762695312 55.88422012329102 1411.368774414062 C 50.93451309204102 1422.4306640625 46.38422775268555 1433.708618164062 42.24201202392578 1445.182861328125 C 38.09981155395508 1456.657348632812 34.36566162109375 1468.328125 31.04825592041016 1480.17578125 C 26.8170280456543 1495.28759765625 23.28790283203125 1509.968872070312 20.46334457397461 1524.19677734375 C 17.63877868652344 1538.424438476562 15.5187816619873 1552.198608398438 14.10582542419434 1565.49560546875 C 12.69286918640137 1578.792724609375 11.98693943023682 1591.613159179688 11.99050807952881 1603.933471679688 C 11.99408531188965 1616.254028320312 12.70716857910156 1628.074340820312 14.13221836090088 1639.370971679688 C 14.73551464080811 1644.153198242188 15.4970006942749 1648.855346679688 16.41234588623047 1653.466430664062 C 17.32769012451172 1658.077392578125 18.39688682556152 1662.596923828125 19.61561012268066 1667.013549804688 C 20.83433532714844 1671.430297851562 22.20257949829102 1675.743896484375 23.71601676940918 1679.943115234375 C 25.22944450378418 1684.142578125 26.88806343078613 1688.227416992188 28.68753433227539 1692.186279296875 C 28.74884414672852 1691.982421875 28.8105640411377 1691.77880859375 28.87269401550293 1691.5751953125 C 28.93484115600586 1691.37158203125 28.99738311767578 1691.168212890625 29.06033706665039 1690.964965820312 C 29.12328910827637 1690.761352539062 29.18663787841797 1690.558227539062 29.25039672851562 1690.355102539062 C 29.31415748596191 1690.151977539062 29.37829780578613 1689.948852539062 29.44283294677734 1689.746337890625 C 31.16892623901367 1684.323852539062 33.41961669921875 1679.134155273438 36.10161590576172 1674.286865234375 C 38.78361511230469 1669.439819335938 41.89692687988281 1664.935302734375 45.34827423095703 1660.882446289062 C 48.79962158203125 1656.82958984375 52.5889778137207 1653.228881835938 56.62308120727539 1650.18994140625 C 60.65718460083008 1647.150634765625 64.93603515625 1644.672973632812 69.36635589599609 1642.8662109375 C 70.8822021484375 1642.248046875 72.40887451171875 1641.707641601562 73.94434356689453 1641.244506835938 C 75.47980499267578 1640.78125 77.02408599853516 1640.395263671875 78.57512664794922 1640.086791992188 C 80.12616729736328 1639.778198242188 81.68397521972656 1639.547119140625 83.24652099609375 1639.392944335938 C 84.80908203125 1639.23876953125 86.37639617919922 1639.16162109375 87.9464111328125 1639.16162109375 C 90.04380035400391 1639.16162109375 92.14607238769531 1639.299194335938 94.24848175048828 1639.573608398438 C 96.35089111328125 1639.848022460938 98.45343780517578 1640.259643554688 100.5513763427734 1640.80810546875 C 102.6493072509766 1641.356567382812 104.7426147460938 1642.041625976562 106.8265533447266 1642.86328125 C 108.9104843139648 1643.684936523438 110.9850387573242 1644.643188476562 113.0454864501953 1645.737426757812 C 117.5201187133789 1648.113525390625 121.6120529174805 1651.112426757812 125.2380218505859 1654.596069335938 C 128.8639984130859 1658.079833984375 132.0240325927734 1662.048461914062 134.6348419189453 1666.3642578125 C 137.2456817626953 1670.68017578125 139.3073425292969 1675.343627929688 140.7365570068359 1680.216430664062 C 142.1658172607422 1685.089477539062 142.9626617431641 1690.171997070312 143.0438079833984 1695.326782226562 C 143.1221160888672 1700.288818359375 142.5133666992188 1705.2646484375 141.2931518554688 1710.1123046875 C 140.0729064941406 1714.960083007812 138.2411499023438 1719.6796875 135.8733520507812 1724.129516601562 C 133.5055541992188 1728.5791015625 130.6017150878906 1732.758911132812 127.2373123168945 1736.526733398438 C 123.8729248046875 1740.29443359375 120.047981262207 1743.650634765625 115.8379592895508 1746.452880859375 C 113.4949645996094 1748.0126953125 111.0571517944336 1749.391845703125 108.5542526245117 1750.5830078125 C 106.0513610839844 1751.774291992188 103.4833755493164 1752.777465820312 100.8800354003906 1753.585693359375 C 98.27669525146484 1754.393798828125 95.63801574707031 1755.006958007812 92.99372863769531 1755.418090820312 C 90.34944915771484 1755.829345703125 87.69956207275391 1756.03857421875 85.07380676269531 1756.038818359375 C 84.46713256835938 1756.038818359375 83.86182403564453 1756.02783203125 83.25820159912109 1756.005493164062 C 82.65457153320312 1755.983032226562 82.05264282226562 1755.94921875 81.45272827148438 1755.904174804688 C 80.85282135009766 1755.859130859375 80.25492095947266 1755.802856445312 79.65936279296875 1755.735107421875 C 79.06380462646484 1755.667114257812 78.47060394287109 1755.588012695312 77.88007354736328 1755.497436523438 C 73.95529937744141 1754.894897460938 70.06584167480469 1753.785400390625 66.23695373535156 1752.186889648438 C 62.40805816650391 1750.588256835938 58.63973617553711 1748.500244140625 54.95723342895508 1745.940795898438 C 51.27472686767578 1743.381225585938 47.67805099487305 1740.350219726562 44.19242858886719 1736.865356445312 C 40.70681762695312 1733.38037109375 37.33226013183594 1729.441528320312 34.09403228759766 1725.06640625 C 33.24338912963867 1731.838256835938 32.69322204589844 1738.718627929688 32.36789321899414 1745.66943359375 C 32.04256439208984 1752.62060546875 31.94207763671875 1759.642333984375 31.99079895019531 1766.697021484375 C 32.03952026367188 1773.751586914062 32.2374382019043 1780.83935546875 32.5088996887207 1787.922241210938 C 32.78037643432617 1795.005126953125 33.12540054321289 1802.083129882812 33.46832275390625 1809.118530273438 C 33.61489868164062 1812.125854492188 33.76081848144531 1815.121337890625 33.90019607543945 1818.102172851562 C 34.03957366943359 1821.0830078125 34.17240142822266 1824.049194335938 34.29280090332031 1826.997436523438 C 34.4131965637207 1829.945556640625 34.52115631103516 1832.8759765625 34.61079025268555 1835.785522460938 C 34.70042419433594 1838.694946289062 34.77173614501953 1841.58349609375 34.81884384155273 1844.447875976562 C 34.88436889648438 1848.437622070312 34.9281120300293 1852.428466796875 34.95550918579102 1856.420166015625 C 34.98289108276367 1860.411865234375 34.99392700195312 1864.404296875 34.9940185546875 1868.397094726562 C 34.99412536621094 1872.389770507812 34.98330307006836 1876.383178710938 34.96698760986328 1880.376342773438 C 34.95066833496094 1884.36962890625 34.9288444519043 1888.363037109375 34.90695571899414 1892.35595703125 C 34.89601135253906 1894.343627929688 34.88509750366211 1896.331420898438 34.87488555908203 1898.319091796875 C 34.86467361450195 1900.306518554688 34.85515975952148 1902.2939453125 34.84701538085938 1904.281494140625 C 34.83889007568359 1906.268920898438 34.83211517333984 1908.256103515625 34.8273811340332 1910.242919921875 C 34.8226318359375 1912.229614257812 34.81993865966797 1914.21630859375 34.81993865966797 1916.202880859375 L 34.81993865966797 2036.948364257812 L 34.81993865966797 2194.999755859375 L 34.81993865966797 2378.5791015625 L 34.81993865966797 2575.90234375 L 34.81993865966797 2775.191650390625 L 34.81993865966797 2964.663818359375 L 34.81993865966797 3132.5380859375 C 34.81993865966797 3136.84130859375 34.76592254638672 3141.159912109375 34.67056274414062 3145.505859375 C 34.57520294189453 3149.851806640625 34.43853759765625 3154.22509765625 34.27325439453125 3158.638427734375 C 34.10797500610352 3163.051513671875 33.91407775878906 3167.50390625 33.70428848266602 3172.008544921875 C 33.49450302124023 3176.51318359375 33.26882553100586 3181.069580078125 33.03995132446289 3185.690185546875 C 32.05892944335938 3205.502197265625 31.06953430175781 3225.48291015625 31.19565391540527 3245.09326171875 C 31.3217716217041 3264.703369140625 32.56340408325195 3283.943359375 36.04446411132812 3302.27392578125 C 39.52550506591797 3320.604736328125 45.24597549438477 3338.026123046875 54.32977294921875 3353.999267578125 C 63.41357040405273 3369.972412109375 75.86067962646484 3384.4970703125 92.79501342773438 3397.03466796875 C 97.88574981689453 3400.803466796875 103.2600250244141 3404.371826171875 108.9750518798828 3407.76708984375 C 114.690071105957 3411.162353515625 120.745849609375 3414.384765625 127.1996307373047 3417.461181640625 C 133.6533813476562 3420.537353515625 140.5051422119141 3423.468017578125 147.8120727539062 3426.27978515625 C 155.1190338134766 3429.09228515625 162.8811798095703 3431.78564453125 171.1557769775391 3434.387939453125 C 186.5879058837891 3439.24072265625 202.4355926513672 3443.429443359375 218.9349517822266 3446.98291015625 C 235.4343566894531 3450.53662109375 252.58544921875 3453.45556640625 270.6244201660156 3455.767578125 C 288.6633911132812 3458.079833984375 307.5902099609375 3459.785400390625 327.6410522460938 3460.9130859375 C 347.6919250488281 3462.041015625 368.8668212890625 3462.590576171875 391.4019165039062 3462.590576171875 C 392.4996032714844 3462.590576171875 393.5997314453125 3462.589111328125 394.7026977539062 3462.586669921875 C 395.8056335449219 3462.583740234375 396.9114685058594 3462.579833984375 398.0205383300781 3462.574951171875 C 399.1296081542969 3462.569580078125 400.2420043945312 3462.563232421875 401.3580932617188 3462.555419921875 C 402.4742126464844 3462.547607421875 403.593994140625 3462.538330078125 404.7179565429688 3462.528076171875 C 407.6263732910156 3462.50146484375 410.6041870117188 3462.466796875 413.6415405273438 3462.4189453125 C 416.6788635253906 3462.371337890625 419.7757568359375 3462.310791015625 422.9223022460938 3462.23193359375 C 426.06884765625 3462.153076171875 429.2650146484375 3462.05615234375 432.5008850097656 3461.935791015625 C 435.73681640625 3461.816162109375 439.0125122070312 3461.67236328125 442.3180236816406 3461.50048828125 C 439.2652893066406 3459.440185546875 436.5050354003906 3457.103759765625 434.08056640625 3454.560791015625 C 431.6560668945312 3452.017333984375 429.5674133300781 3449.267333984375 427.8579406738281 3446.379150390625 C 426.1484680175781 3443.4912109375 424.8181762695312 3440.465087890625 423.9104309082031 3437.370361328125 C 423.0025939941406 3434.275634765625 422.5173034667969 3431.111572265625 422.4979553222656 3427.947509765625 C 422.4663391113281 3422.8486328125 423.5529174804688 3418.10400390625 425.4594116210938 3413.77685546875 C 427.3658447265625 3409.450439453125 430.0921020507812 3405.540771484375 433.3397216796875 3402.1103515625 C 436.5873413085938 3398.679931640625 440.3564453125 3395.729248046875 444.3484497070312 3393.3212890625 C 448.3405456542969 3390.913330078125 452.5556030273438 3389.046875 456.6952209472656 3387.785400390625 C 458.14892578125 3387.342529296875 459.6116333007812 3386.957275390625 461.079345703125 3386.6279296875 C 462.547119140625 3386.29833984375 464.0198669433594 3386.025146484375 465.49365234375 3385.806884765625 C 466.9674682617188 3385.589111328125 468.4424133300781 3385.427001953125 469.9144287109375 3385.31884765625 C 471.386474609375 3385.210693359375 472.8555603027344 3385.15771484375 474.3177795410156 3385.15771484375 C 478.1477661132812 3385.15771484375 481.931884765625 3385.5244140625 485.6009826660156 3386.24072265625 C 489.2700805664062 3386.957275390625 492.8241882324219 3388.0234375 496.1939392089844 3389.4228515625 C 499.5637512207031 3390.82275390625 502.749267578125 3392.55517578125 505.6812133789062 3394.603759765625 C 508.6132202148438 3396.65234375 511.2916870117188 3399.01708984375 513.6473388671875 3401.6806640625 C 515.4972534179688 3403.772705078125 517.1234130859375 3406.090087890625 518.5064697265625 3408.572265625 C 519.8894653320312 3411.05419921875 521.0292358398438 3413.700927734375 521.906494140625 3416.451904296875 C 522.7837524414062 3419.202880859375 523.3984375 3422.0576171875 523.731201171875 3424.95556640625 C 524.0638427734375 3427.853515625 524.1146240234375 3430.794921875 523.8639526367188 3433.71826171875 C 523.6368408203125 3436.368896484375 523.1751098632812 3438.929931640625 522.492431640625 3441.37548828125 C 521.8096923828125 3443.821044921875 520.906005859375 3446.150634765625 519.794677734375 3448.338134765625 C 518.6832885742188 3450.525390625 517.3642578125 3452.570556640625 515.85107421875 3454.44775390625 C 514.337890625 3456.324462890625 512.6304931640625 3458.032470703125 510.7423400878906 3459.54541015625 C 509.81298828125 3460.29052734375 508.8574829101562 3460.980712890625 507.8800659179688 3461.621337890625 C 506.9026489257812 3462.26220703125 505.9033203125 3462.85302734375 504.8861389160156 3463.39892578125 C 503.8689880371094 3463.944580078125 502.8340759277344 3464.4453125 501.7855529785156 3464.906005859375 C 500.7370300292969 3465.36669921875 499.6748657226562 3465.78759765625 498.603271484375 3466.17236328125 C 500.7325134277344 3466.36865234375 502.8757934570312 3466.53369140625 505.0287780761719 3466.670654296875 C 507.1817321777344 3466.807373046875 509.3444213867188 3466.91650390625 511.512451171875 3467.000732421875 C 513.6804809570312 3467.085205078125 515.8539428710938 3467.14501953125 518.0285034179688 3467.18359375 C 520.203125 3467.222412109375 522.37890625 3467.240478515625 524.551513671875 3467.240478515625 C 527.55126953125 3467.240478515625 530.5446166992188 3467.206787109375 533.5201416015625 3467.1484375 C 536.4956665039062 3467.090087890625 539.453369140625 3467.006591796875 542.3818359375 3466.90771484375 C 545.3102416992188 3466.808837890625 548.2094116210938 3466.694580078125 551.06787109375 3466.57373046875 C 553.9263916015625 3466.452392578125 556.7442016601562 3466.32470703125 559.5098876953125 3466.19970703125 C 560.8881225585938 3466.13720703125 562.2537841796875 3466.075439453125 563.60546875 3466.015625 C 564.957275390625 3465.955078125 566.295166015625 3465.896240234375 567.617919921875 3465.840087890625 C 568.940673828125 3465.78466796875 570.2482299804688 3465.7314453125 571.5393676757812 3465.682373046875 C 572.8305053710938 3465.632568359375 574.1050415039062 3465.5869140625 575.3619384765625 3465.54638671875 C 580.6871948242188 3465.37451171875 586.0742797851562 3465.15283203125 591.4962768554688 3464.894287109375 C 596.9182739257812 3464.6357421875 602.3751220703125 3464.340087890625 607.8400268554688 3464.0205078125 C 613.3048706054688 3463.701416015625 618.7777099609375 3463.359130859375 624.2315673828125 3463.005859375 C 629.6854858398438 3462.65283203125 635.1204223632812 3462.28955078125 640.5095825195312 3461.929443359375 C 648.3846435546875 3461.403076171875 656.2840576171875 3460.875 664.1976318359375 3460.379150390625 C 672.1112060546875 3459.8837890625 680.0389404296875 3459.420166015625 687.970458984375 3459.022216796875 C 695.9019165039062 3458.624267578125 703.8372192382812 3458.292236328125 711.76611328125 3458.059814453125 C 719.6948852539062 3457.826904296875 727.6171264648438 3457.693603515625 735.5226440429688 3457.693603515625 C 750.0376586914062 3457.693603515625 764.4979248046875 3458.14208984375 778.8423461914062 3459.247802734375 C 793.1868286132812 3460.353515625 807.4154663085938 3462.115966796875 821.4674072265625 3464.744384765625 C 835.5194091796875 3467.37255859375 849.3945922851562 3470.8662109375 863.0321044921875 3475.433837890625 C 876.6696166992188 3480.00146484375 890.0694580078125 3485.643310546875 903.1707153320312 3492.5673828125 C 921.1454467773438 3502.06689453125 937.7577514648438 3513.85986328125 952.86328125 3527.73095703125 C 967.9688110351562 3541.60205078125 981.5677490234375 3557.55126953125 993.5156860351562 3575.3642578125 C 1005.463623046875 3593.177001953125 1015.760498046875 3612.85302734375 1024.262329101562 3634.17724609375 C 1032.76416015625 3655.501220703125 1039.470703125 3678.4736328125 1044.238037109375 3702.87890625 C 1051.722778320312 3741.1943359375 1054.047729492188 3790.459228515625 1050.922119140625 3843.815185546875 C 1047.796630859375 3897.1708984375 1039.220581054688 3954.61767578125 1024.903686523438 4009.2958984375 C 1010.586669921875 4063.97412109375 990.5287475585938 4115.8837890625 964.4393310546875 4158.1669921875 C 938.3499145507812 4200.44921875 906.2288818359375 4233.1044921875 867.7858276367188 4249.27392578125 Z M 474.4389953613281 3397.102294921875 C 473.2608032226562 3397.102294921875 472.0758972167969 3397.145751953125 470.8875732421875 3397.2333984375 C 469.69921875 3397.321044921875 468.5073547363281 3397.453125 467.3152160644531 3397.6298828125 C 466.1231384277344 3397.80615234375 464.9306640625 3398.02783203125 463.7411499023438 3398.295166015625 C 462.5515441894531 3398.5625 461.3648681640625 3398.875732421875 460.1842956542969 3399.235595703125 C 456.973388671875 3400.214111328125 453.7554321289062 3401.641357421875 450.7358703613281 3403.4443359375 C 447.7163391113281 3405.248046875 444.8952026367188 3407.427490234375 442.47802734375 3409.91064453125 C 440.0608520507812 3412.393798828125 438.0476989746094 3415.1806640625 436.6441040039062 3418.198486328125 C 435.2405090332031 3421.216796875 434.4464721679688 3424.466064453125 434.4674682617188 3427.87353515625 C 434.4845275878906 3430.640625 435.0196228027344 3433.278076171875 435.9345703125 3435.750732421875 C 436.8495178222656 3438.2236328125 438.1442565917969 3440.5322265625 439.6806335449219 3442.642333984375 C 441.2170104980469 3444.752685546875 442.9949035644531 3446.66455078125 444.8760681152344 3448.34375 C 446.7572937011719 3450.023681640625 448.7417907714844 3451.470703125 450.6913757324219 3452.65087890625 C 451.8749389648438 3453.367431640625 453.0865173339844 3454.05078125 454.3243103027344 3454.701904296875 C 455.5621337890625 3455.353271484375 456.8262329101562 3455.97216796875 458.1148376464844 3456.56103515625 C 459.4033508300781 3457.14990234375 460.7164306640625 3457.708251953125 462.05224609375 3458.237060546875 C 463.3880310058594 3458.76611328125 464.7466125488281 3459.265869140625 466.1261596679688 3459.73828125 C 467.1124877929688 3459.640869140625 468.0993957519531 3459.5400390625 469.086669921875 3459.435302734375 C 470.0738830566406 3459.3310546875 471.0614624023438 3459.223388671875 472.0491027832031 3459.11181640625 C 473.0367431640625 3459.000244140625 474.0244445800781 3458.885009765625 475.0119934082031 3458.76611328125 C 475.99951171875 3458.647216796875 476.9868469238281 3458.5244140625 477.9736938476562 3458.3974609375 C 480.1432495117188 3458.1181640625 482.3846130371094 3457.806640625 484.6321411132812 3457.4111328125 C 486.879638671875 3457.01513671875 489.1333618164062 3456.535400390625 491.3276977539062 3455.920654296875 C 493.52197265625 3455.305908203125 495.6568298339844 3454.555908203125 497.6667785644531 3453.6201171875 C 499.6766967773438 3452.6845703125 501.5617065429688 3451.5634765625 503.2560729980469 3450.204833984375 C 504.4992370605469 3449.208984375 505.6242370605469 3448.072998046875 506.6223449707031 3446.8154296875 C 507.6203918457031 3445.558349609375 508.4915161132812 3444.179443359375 509.226806640625 3442.6962890625 C 509.9620666503906 3441.21337890625 510.5615234375 3439.62646484375 511.0162658691406 3437.953857421875 C 511.4710693359375 3436.28125 511.7811279296875 3434.52294921875 511.9376831054688 3432.696533203125 C 512.1196899414062 3430.57275390625 512.0867309570312 3428.4404296875 511.8524169921875 3426.34375 C 511.6181640625 3424.246826171875 511.1825866699219 3422.185546875 510.5594482421875 3420.203369140625 C 509.9363098144531 3418.220947265625 509.125732421875 3416.31787109375 508.1413879394531 3414.537841796875 C 507.1570129394531 3412.758056640625 505.9989013671875 3411.10107421875 504.6808471679688 3409.610595703125 C 502.8952026367188 3407.59130859375 500.8557434082031 3405.7998046875 498.6151428222656 3404.24853515625 C 496.3745727539062 3402.697265625 493.932861328125 3401.385986328125 491.3425598144531 3400.32763671875 C 488.7522277832031 3399.269287109375 486.0133972167969 3398.462646484375 483.1786193847656 3397.921142578125 C 480.3438110351562 3397.37939453125 477.4130859375 3397.102294921875 474.4389953613281 3397.102294921875 Z M 36.98982238769531 1707.922729492188 C 37.50162124633789 1708.763671875 38.02084350585938 1709.597045898438 38.54742050170898 1710.42236328125 C 39.07399749755859 1711.247680664062 39.60794067382812 1712.06494140625 40.14918899536133 1712.8740234375 C 40.6904411315918 1713.683227539062 41.23899459838867 1714.484252929688 41.79479598999023 1715.277221679688 C 42.3505973815918 1716.070068359375 42.91362762451172 1716.854736328125 43.48384094238281 1717.630859375 C 45.41733169555664 1720.263305664062 47.65248107910156 1723.053588867188 50.16633987426758 1725.796997070312 C 52.68019485473633 1728.540405273438 55.47275924682617 1731.23681640625 58.5211067199707 1733.680419921875 C 61.56945419311523 1736.1240234375 64.87358856201172 1738.314819335938 68.41058349609375 1740.047485351562 C 71.94757843017578 1741.7802734375 75.71743774414062 1743.054931640625 79.69719696044922 1743.665893554688 C 80.14164733886719 1743.734375 80.58837127685547 1743.793823242188 81.03713989257812 1743.844970703125 C 81.48590850830078 1743.895874023438 81.93670654296875 1743.938232421875 82.38925933837891 1743.972045898438 C 82.84180450439453 1744.005859375 83.29611206054688 1744.03125 83.75191497802734 1744.047973632812 C 84.20771026611328 1744.065063476562 84.66499328613281 1744.073364257812 85.12348175048828 1744.073364257812 C 87.15898132324219 1744.073364257812 89.21854400634766 1743.90771484375 91.27874755859375 1743.582397460938 C 93.33893585205078 1743.2568359375 95.3997802734375 1742.771484375 97.43782043457031 1742.131713867188 C 99.47584533691406 1741.491943359375 101.4910888671875 1740.697998046875 103.4601211547852 1739.755737304688 C 105.4291381835938 1738.813598632812 107.351936340332 1737.722534179688 109.2050933837891 1736.48876953125 C 112.5891342163086 1734.236083984375 115.6637115478516 1731.54150390625 118.3681182861328 1728.518432617188 C 121.0725173950195 1725.495239257812 123.4067764282227 1722.14404296875 125.310173034668 1718.578002929688 C 127.2135696411133 1715.01220703125 128.6861267089844 1711.231689453125 129.6671295166016 1707.349975585938 C 130.6481323242188 1703.468383789062 131.1376037597656 1699.485595703125 131.0748596191406 1695.515747070312 C 131.0117034912109 1691.497314453125 130.3704528808594 1687.49853515625 129.2270965576172 1683.6455078125 C 128.083740234375 1679.792602539062 126.4382858276367 1676.085571289062 124.36669921875 1672.650390625 C 122.2951126098633 1669.215087890625 119.7973709106445 1666.051879882812 116.949462890625 1663.286254882812 C 114.1015625 1660.520751953125 110.9034881591797 1658.152954101562 107.4311904907227 1656.30859375 C 105.8013153076172 1655.44287109375 104.1723709106445 1654.685546875 102.5453262329102 1654.036010742188 C 100.9182739257812 1653.386474609375 99.29310607910156 1652.845336914062 97.67082214355469 1652.412353515625 C 96.04853057861328 1651.979370117188 94.42910766601562 1651.654541015625 92.81351470947266 1651.437744140625 C 91.19791412353516 1651.221313476562 89.58614349365234 1651.112915039062 87.97915649414062 1651.112915039062 C 86.79233551025391 1651.112915039062 85.60814666748047 1651.171875 84.42695617675781 1651.290161132812 C 83.24576568603516 1651.408325195312 82.06757354736328 1651.585571289062 80.8927001953125 1651.822021484375 C 79.71782684326172 1652.058227539062 78.54627227783203 1652.353881835938 77.37841033935547 1652.70849609375 C 76.21054077148438 1653.063354492188 75.04634857177734 1653.47705078125 73.88616943359375 1653.950317382812 C 70.25579071044922 1655.4306640625 66.74179840087891 1657.485107421875 63.42139434814453 1660.021728515625 C 60.10099029541016 1662.55810546875 56.97416305541992 1665.576782226562 54.11814498901367 1668.985229492188 C 51.26212310791016 1672.393676757812 48.67691421508789 1676.191772460938 46.4397087097168 1680.287719726562 C 44.20248794555664 1684.383666992188 42.31328964233398 1688.777465820312 40.84931564331055 1693.377075195312 C 40.4707145690918 1694.566284179688 40.10699844360352 1695.76171875 39.75768280029297 1696.963134765625 C 39.40838241577148 1698.164184570312 39.07347869873047 1699.371337890625 38.75250625610352 1700.583984375 C 38.4315299987793 1701.796752929688 38.12446594238281 1703.014892578125 37.83086013793945 1704.238159179688 C 37.53723526000977 1705.46142578125 37.25705337524414 1706.689819335938 36.98982238769531 1707.922729492188 Z M 1010.58154296875 731.9537353515625 C 1009.177001953125 731.9537353515625 1007.772644042969 732.0691528320312 1006.369323730469 732.2998046875 C 1004.965942382812 732.5303955078125 1003.563537597656 732.876220703125 1002.163269042969 733.3373413085938 C 1000.762939453125 733.7984619140625 999.3646850585938 734.3746948242188 997.9692993164062 735.06591796875 C 996.5738525390625 735.7572021484375 995.1812133789062 736.5634155273438 993.79248046875 737.4846801757812 C 989.8937377929688 740.0711059570312 986.2462768554688 743.4324951171875 982.9625854492188 747.3475952148438 C 979.6788330078125 751.2628784179688 976.7587280273438 755.73193359375 974.3150634765625 760.5336303710938 C 971.871337890625 765.3353271484375 969.9039306640625 770.4698486328125 968.5253295898438 775.7158813476562 C 967.1466674804688 780.9620361328125 966.3568725585938 786.3196411132812 966.2684936523438 791.5677490234375 C 966.1455078125 798.8645629882812 967.0159301757812 806.3268432617188 968.8067016601562 813.4589233398438 C 970.5975341796875 820.5911254882812 973.3087768554688 827.3931274414062 976.8673706054688 833.369140625 C 980.4259643554688 839.3451538085938 984.8322143554688 844.4951171875 990.0128784179688 848.3234252929688 C 995.1934814453125 852.1517333984375 1001.148559570312 854.658203125 1007.805297851562 855.3472900390625 C 1008.13623046875 855.3814697265625 1008.465881347656 855.4114379882812 1008.794006347656 855.4368896484375 C 1009.122314453125 855.4623413085938 1009.449096679688 855.4835205078125 1009.774475097656 855.5004272460938 C 1010.099853515625 855.5173950195312 1010.423706054688 855.5299072265625 1010.746276855469 855.538330078125 C 1011.06884765625 855.5465698242188 1011.389831542969 855.5508422851562 1011.709228515625 855.5508422851562 C 1015.071044921875 855.5508422851562 1018.275085449219 855.0904541015625 1021.325317382812 854.2417602539062 C 1024.375610351562 853.3931884765625 1027.27197265625 852.1561279296875 1030.018920898438 850.6026611328125 C 1032.765869140625 849.0491333007812 1035.363037109375 847.1793212890625 1037.814697265625 845.0650024414062 C 1040.266479492188 842.9506225585938 1042.57275390625 840.591796875 1044.737548828125 838.060546875 C 1047.097900390625 831.0881958007812 1048.848388671875 824.042724609375 1049.973999023438 817.0313110351562 C 1051.099609375 810.019775390625 1051.600341796875 803.0423583984375 1051.461059570312 796.2059326171875 C 1051.32177734375 789.3695068359375 1050.542602539062 782.6741943359375 1049.108276367188 776.2271728515625 C 1047.674072265625 769.7801513671875 1045.584838867188 763.5814208984375 1042.825561523438 757.7379150390625 C 1041.836181640625 755.6427612304688 1040.654907226562 753.3890380859375 1039.267700195312 751.1177368164062 C 1037.880249023438 748.8463134765625 1036.286987304688 746.557373046875 1034.473266601562 744.3919677734375 C 1032.65966796875 742.2266235351562 1030.625732421875 740.1846313476562 1028.357177734375 738.4071655273438 C 1026.088745117188 736.6297607421875 1023.585876464844 735.1170654296875 1020.834350585938 734.010009765625 C 1019.982116699219 733.667236328125 1019.129028320312 733.3671875 1018.275451660156 733.110107421875 C 1017.421752929688 732.8530883789062 1016.567443847656 732.638916015625 1015.712768554688 732.4675903320312 C 1014.857971191406 732.2962646484375 1014.0029296875 732.1677856445312 1013.147644042969 732.0822143554688 C 1012.292358398438 731.99658203125 1011.436828613281 731.9537353515625 1010.58154296875 731.9537353515625 Z" stroke="none" fill="#e26a2c"/>
    </g>
    <path id="Path_68" data-name="Path 68" d="M1212.946,1200.6l22.144-13.075.252,25.715.252,25.715-22.4-12.64-22.4-12.639Z" fill="#009245"/>
    <path id="Path_69" data-name="Path 69" d="M121.029,2310.493l16.588,19.651-25.312,4.54-25.312,4.54,8.724-24.191,8.724-24.191Z" fill="#009245"/>
    <path id="Path_70" data-name="Path 70" d="M624.475,1822.068l-4.59-30.532,28.908,11.266,28.908,11.266-24.318,19.267L629.065,1852.6Z" fill="#009245"/>
    <path id="Path_71" data-name="Path 71" d="M137.02,3831.436l16.588,19.651-25.312,4.54-25.312,4.54,8.724-24.191,8.724-24.191Z" fill="#009245"/>
    <path id="Path_72" data-name="Path 72" d="M137.457,3239.535l25.621-2.206-10.9,23.292-10.9,23.292-14.721-21.086-14.721-21.086Z" fill="#009245"/>
    <path id="Path_75" data-name="Path 75" d="M891.756,4185.946l25.621-2.206-10.9,23.292-10.9,23.292-14.721-21.086-14.721-21.086Z" fill="#009245"/>
    <path id="Path_76" data-name="Path 76" d="M1156.777,4516.216l15.393,17.073-20.728,3.212-20.728,3.211,5.335-20.285,5.335-20.285Z" fill="#009245"/>
    <path id="Path_77" data-name="Path 77" d="M963.937,4915.038l24.3,51.058,24.3,51.058-56.367-4.485-56.367-4.485,32.067-46.573Z" fill="#009245"/>
  </g>
</svg>
