<svg xmlns="http://www.w3.org/2000/svg" viewBox="0 0 1307.86 298.15"><defs><style>.cls-1{fill:none;stroke:#e26a2c;stroke-linecap:round;stroke-linejoin:round;stroke-width:12px;}.cls-2{fill:#009245;}</style></defs><g id="Layer_2" data-name="Layer 2"><g id="Layer_3" data-name="Layer 3"><path class="cls-1" d="M6,20C44.87,5.38,87.64,3.41,128.85,8.61s81.21,17.33,120.69,30.23C315.65,60.45,381.34,84.56,442,118.68c47.88,26.95,92.13,59.81,139.94,86.88,49.76,28.17,102.58,45.18,159.41,52A421.8,421.8,0,0,0,861.88,255c57.43-9.68,112-30.77,166.83-49.65,62.39-21.49,135.35-48.89,202-32.4,21.22,5.26,42,17,49.31,38.77,7.26,21.66-1.19,45.78-18.63,60-12.19,9.93-27.63,15.31-43.22,17.37-21.63,2.85-48.57-1.81-60.76-22-17.17-28.45,5-64.05,27.61-82.2,34.36-27.58,80.09-33.72,116.85-57.22"/><polygon class="cls-2" points="528.79 173.11 528.79 156.49 543.28 164.8 557.77 173.11 543.28 181.43 528.79 189.74 528.79 173.11"/><polygon class="cls-2" points="1226.14 278.48 1237.43 266.27 1242.43 282.21 1247.43 298.15 1231.15 294.42 1214.86 290.7 1226.14 278.48"/><polygon class="cls-2" points="1005.3 213.84 995.16 194.26 1017.29 195.21 1039.42 196.15 1027.44 214.78 1015.45 233.41 1005.3 213.84"/><polygon class="cls-2" points="187.3 33.5 173.58 16.24 195.49 12.91 217.39 9.59 209.2 30.17 201.01 50.76 187.3 33.5"/></g></g></svg>