<svg xmlns="http://www.w3.org/2000/svg" width="1303.088" height="252.261" viewBox="0 0 1303.088 252.261">
  <g id="Group_65" data-name="Group 65" transform="translate(3.617 -94.606)">
    <path id="Path_83" data-name="Path 83" d="M3.651,316.148c31.9,16.435,63.407,12.086,98.807,6.23,98.723-16.33,191.6-66.138,259.825-139.339,11.546-12.388,22.826-26.3,25.61-43s-6.205-36.481-22.791-39.9c-13.133-2.7-26.773,5.871-33.042,17.724s-6.325,26.114-3.694,39.261c8.165,40.8,40.6,73.821,78.493,91.011s80.675,20.444,122.242,18.653a545.084,545.084,0,0,0,213.282-53.756c39.531-19.133,76.891-43.122,118.319-57.7a284.736,284.736,0,0,1,196.337,3.414c44.517,17.426,83.79,45.811,126.332,67.619s61.471,41.879,108.109,31.313" transform="translate(0.814 1)" fill="none" stroke="#e26a2c" stroke-linecap="round" stroke-linejoin="round" stroke-width="12"/>
    <path id="Path_84" data-name="Path 84" d="M535.334,269.123l-7.651-14.761,16.691.712,16.691.712-9.041,14.049-9.041,14.049Z" transform="translate(0.814 1)" fill="#009245"/>
    <path id="Path_85" data-name="Path 85" d="M1121.449,203.044,1111.3,183.471l22.134.944,22.134.944-11.989,18.63-11.989,18.63Z" transform="translate(0.814 1)" fill="#009245"/>
    <path id="Path_86" data-name="Path 86" d="M61.085,323.847l1.087-22.02,18.65,11.957,18.65,11.957L79.735,335.8,60,345.867Z" transform="translate(0.814 1)" fill="#009245"/>
  </g>
</svg>
